<svg xmlns="http://www.w3.org/2000/svg" xmlns:xlink="http://www.w3.org/1999/xlink" x="0px" y="0px" viewBox="0 0 762.3 474.1" style="enable-background:new 0 0 762.3 474.1;" xml:space="preserve"><style type="text/css">	.st0{display:none;}	.st1{display:inline;opacity:0.5;}	.st2{fill:#1A1A19;}	.st3{fill:#DA7533;}	.st4{fill:#FEFEFE;}	.st5{fill:#FF8727;}	.st6{fill:#1E0040;}	.st7{fill:#FFFFFF;}	.st8{fill:none;stroke:#FF8727;stroke-width:6;stroke-miterlimit:10;}	.st9{fill:#7402DE;}	.st10{fill:#FFBE29;}	.st11{fill:none;stroke:#000000;stroke-width:6;stroke-miterlimit:10;}	.st12{fill:#7C00FF;}	.st13{fill:#999999;}	.st14{fill:none;stroke:#000000;stroke-width:5;stroke-miterlimit:10;}	.st15{fill:none;stroke:#FFFFFF;stroke-width:5;stroke-miterlimit:10;}	.st16{fill:#F67914;}	.st17{fill:#49008D;}	.st18{fill:#8A9C28;}</style><g id="Layer_1" class="st0"></g><g id="Layer_2">	<g>		<path class="st5" d="M762.3,183.5l-64.2-20.4l-32.9-24.5l22.4,37.1l-24.4,1.4l-82.1-11.1l-2.6-11.7l9.1-4.6l-10.4-9.1l12.4,3.3   l-3.9-13.7l12.4-13l-33.9,11.7l0.7,21.5l-8.5,21.5l-15.6,3.9l-1.3-13.7l8.5-5.2l-11.7-6.5h15.6l-2-10.4l8.5-1.3l-11.7-15   l-25.4,11.1l-9.8,35.8h9.8l-2.6,9.1L446.9,192l-84.7,40.4L240.3,220l-45.6,36.5l51.5-18.2l112.1,22.2l85.2-5.5l59.6-12.5   l-17.8,18.8l-14.3,6.4l-16.9-4.6l7.8,9.1l-15.6,8.5l18.2-1.3l-3.9,19.5l16.3-16.9l46.9-20.2l34.5-24.1l-38.4,63.9l20.9,3.9   l-52.1,23.5l13.7,37.1l33.2,3.9l-37.8,10.4l-21,49.5l-77.5,44.3l181.3-18.8l103-101.7l7.2,18.9l7.8-60.6l-39.7-4.6L613,259.1   l10.4-50.8l76.2-7.8l47.5,15.9l5.2-5.2l-18.2-11.3l21.3,4L762.3,183.5z M717.3,181.7l-3.1-3.1l4.2-4.2l6.3,2.1v5.2H717.3z"></path>		<g>			<path class="st5" d="M3.6,337.7v-4.1h0.5c1.2,0,2.2-0.3,3.1-0.9c0.9-0.6,1.7-1.8,2.4-3.7l14.2-38.8h12l13.6,39    c0.6,1.6,1.3,2.7,2.2,3.4s2,1.1,3.2,1.1h0.7v4.1H31v-4.1h2.7c0.7,0,1.4-0.1,1.9-0.4c0.6-0.3,0.9-0.8,0.9-1.7    c0-0.6-0.1-1.3-0.3-1.9c-0.2-0.6-0.3-1.1-0.4-1.4l-2.1-6.1H18.5L17,327c-0.1,0.5-0.3,1.3-0.6,2.2c-0.2,0.9-0.4,1.7-0.4,2.3    c0,0.7,0.2,1.2,0.5,1.6c0.4,0.4,1,0.6,1.9,0.6h3.3v4.1H3.6z M19.9,317.7h12.2L28.4,305c-0.3-1.2-0.7-2.4-1-3.7    c-0.4-1.3-0.7-2.7-1-4.2c-0.4,1.4-0.7,2.8-1.1,4.1c-0.4,1.3-0.8,2.6-1.1,3.7L19.9,317.7z"></path>			<path class="st5" d="M57,337.7v-4.1h3.5c0.8,0,1.4-0.3,1.9-1s0.7-1.5,0.7-2.6v-32.2c0-1.2-0.3-2.2-0.9-2.7    c-0.6-0.6-1.3-0.9-2.3-0.9h-3v-4.1h23.1c7.7,0,13.8,1.8,18.2,5.5c4.4,3.7,6.7,9.3,6.7,16.8c0,4.8-0.9,9.2-2.8,13    c-1.9,3.8-4.7,6.8-8.4,9c-3.7,2.2-8.3,3.3-13.7,3.3H57z M76.3,333h2.2c2.7,0,5-0.9,6.8-2.6c1.8-1.7,3.2-4.1,4.2-7.2    c1-3.1,1.4-6.7,1.4-10.8c0-6.2-1.1-10.7-3.2-13.5c-2.1-2.8-5.2-4.2-9.1-4.2h-2.3V333z"></path>			<path class="st5" d="M127,337.7l-14-40.5c-0.4-1.2-1-1.9-1.7-2.3c-0.7-0.4-1.4-0.6-2.1-0.6h-2v-4.1h24v4.1H128    c-1.3,0-1.9,0.5-1.9,1.5c0,0.5,0.1,1.1,0.3,1.7c0.2,0.6,0.4,1.3,0.5,1.8l6.3,19.3c0.1,0.4,0.2,0.9,0.4,1.7    c0.2,0.8,0.3,1.6,0.5,2.4c0.2,0.8,0.3,1.6,0.3,2.2c0.1-0.8,0.3-1.7,0.6-3c0.3-1.2,0.6-2.2,0.9-3l6.3-19c0.3-0.9,0.6-1.8,0.8-2.5    s0.3-1.3,0.3-1.8c0-0.3-0.1-0.6-0.4-0.9c-0.3-0.3-0.7-0.4-1.4-0.4h-3.8v-4.1h17.2v4.1h-2.3c-1,0-1.7,0.3-2.3,0.8    c-0.6,0.6-1.2,1.8-1.8,3.8l-13.4,38.8H127z"></path>			<path class="st5" d="M156.2,337.7v-4.1h3.4c0.9,0,1.6-0.3,2-0.9s0.7-1.4,0.7-2.3v-32.5c0-1.6-0.3-2.5-0.9-3    c-0.6-0.4-1.3-0.6-2-0.6h-3.3v-4.1h39.4l0.2,12.7h-5.5l-0.3-3.3c-0.2-1.8-0.6-3-1.2-3.7c-0.6-0.7-1.7-1.1-3.3-1.1h-10v15.8h15.7    v4.5h-15.7v18h11.9c1.4,0,2.5-0.4,3.2-1.3c0.7-0.9,1.2-2,1.4-3.5l0.5-3.3h5.5l-0.5,12.7H156.2z"></path>			<path class="st5" d="M201.1,337.7v-4.1h2.2c1.2,0,2.2-0.2,2.9-0.7c0.7-0.4,1.1-1.6,1.1-3.3V298c0-1.6-0.3-2.7-1-3.1    c-0.7-0.4-1.5-0.6-2.3-0.6h-2.8v-4.1h16.7l23.2,30.5V298c0-1.4-0.3-2.3-0.9-2.9c-0.6-0.6-1.4-0.8-2.3-0.8h-2.9v-4.1h17.8v4.1    h-2.9c-1,0-1.8,0.3-2.4,0.9c-0.6,0.6-0.9,1.6-0.9,3.1v39.4h-7.1l-26.7-35.5v27.4c0,1.8,0.2,2.9,0.7,3.3c0.5,0.4,1.3,0.7,2.5,0.7    h2.9v4.1H201.1z"></path>			<path class="st5" d="M263,337.7v-4.1h2.1c1.3,0,2.3-0.2,3-0.7c0.7-0.5,1.1-1.7,1.1-3.5v-34.6h-4.5c-2,0-3.4,0.3-4.1,1    c-0.8,0.7-1.2,1.7-1.4,3.2l-0.6,5.1h-5.2l0.3-13.8h44.4l0.3,13.8h-5.2l-0.5-5.1c-0.2-1.5-0.6-2.5-1.4-3.2s-2.1-1-4.1-1h-4.5v34.9    c0,1.8,0.4,2.9,1.1,3.3c0.8,0.4,1.8,0.7,3,0.7h2.1v4.1H263z"></path>			<path class="st5" d="M325,338.4c-3.7,0-7-0.5-9.9-1.5s-5.1-2.6-6.7-4.9c-1.6-2.2-2.4-5.2-2.4-8.8V298c0-1.6-0.4-2.7-1.3-3.1    c-0.8-0.4-1.8-0.6-3-0.6h-1.9v-4.1h25.6v4.1h-1.9c-1.2,0-2.1,0.2-3,0.7c-0.8,0.4-1.2,1.6-1.2,3.3v25.5c0,3.6,0.8,6.1,2.4,7.4    c1.6,1.3,3.8,2,6.7,2c1.6,0,3-0.3,4.3-1c1.3-0.6,2.3-1.7,3.1-3.2c0.8-1.5,1.2-3.4,1.2-5.9V298c0-1.6-0.4-2.7-1.2-3.1    c-0.8-0.4-1.8-0.6-3-0.6h-1.9v-4.1h18v4.1h-2c-1.2,0-2.2,0.2-3,0.7c-0.8,0.4-1.2,1.6-1.2,3.3v25c0,3-0.6,5.6-1.8,7.8    c-1.2,2.3-3,4-5.6,5.3C332.5,337.7,329.1,338.4,325,338.4z"></path>			<path class="st5" d="M351.2,337.7v-4.1h2.5c0.8,0,1.7-0.2,2.4-0.6c0.8-0.4,1.2-1.4,1.2-3.1v-32c0-1.1-0.2-1.9-0.6-2.4    c-0.4-0.5-0.9-0.9-1.5-1c-0.6-0.2-1.1-0.3-1.5-0.3h-2.5v-4.1h24c5,0,8.9,0.5,11.8,1.6s5,2.5,6.3,4.4s1.9,4.1,1.9,6.6    s-0.4,4.6-1.3,6.3c-0.9,1.6-2,2.9-3.4,3.9c-1.4,0.9-3,1.6-4.7,2.1l7.6,12.8c1.2,2,2.2,3.5,3.1,4.4c0.9,0.9,1.9,1.4,3,1.4h0.5v4.1    h-3.1c-3.9,0-7.1-0.4-9.8-1.1c-2.7-0.8-4.6-2.4-5.9-4.9l-7-14.4h-3.5V330c0,1.6,0.3,2.7,0.9,3.1c0.6,0.4,1.4,0.6,2.4,0.6h1.6v4.1    H351.2z M370.6,312.9h3c2.6,0,4.5-0.8,5.7-2.3c1.2-1.6,1.8-3.9,1.8-7.1c0-3.2-0.6-5.5-1.9-6.9c-1.3-1.4-3.2-2.1-5.7-2.1h-2.9    V312.9z"></path>			<path class="st5" d="M401.3,337.7v-4.1h3.4c0.9,0,1.6-0.3,2-0.9s0.7-1.4,0.7-2.3v-32.5c0-1.6-0.3-2.5-0.9-3    c-0.6-0.4-1.3-0.6-2-0.6h-3.3v-4.1h39.4l0.2,12.7h-5.5l-0.3-3.3c-0.2-1.8-0.6-3-1.2-3.7c-0.6-0.7-1.7-1.1-3.3-1.1h-10v15.8h15.7    v4.5h-15.7v18h11.9c1.4,0,2.5-0.4,3.2-1.3c0.7-0.9,1.2-2,1.4-3.5l0.5-3.3h5.5l-0.5,12.7H401.3z"></path>		</g>		<g>			<path class="st5" d="M2.9,433.4h4.4c0.7,0,1.4-0.1,2-0.2c0.6-0.1,1.2-0.4,1.7-0.8c0.5-0.4,0.9-1,1.2-1.9c0.3-0.8,0.4-1.9,0.4-3.3    v-50.7c0-1.4-0.1-2.5-0.4-3.3c-0.3-0.8-0.7-1.5-1.2-1.9s-1.1-0.7-1.7-0.9s-1.3-0.2-2-0.2H2.9v-5.5h33.5c9.8,0,17,1.6,21.6,4.9    c4.6,3.3,6.9,8.1,6.9,14.3c0,2.7-0.4,5.2-1.2,7.3c-0.8,2.1-1.9,4-3.2,5.6c-1.3,1.6-2.9,2.9-4.5,4c-1.7,1.1-3.4,2-5.2,2.7    l12.4,21.3c0.9,1.5,1.7,2.8,2.6,3.8s1.7,1.9,2.5,2.6c0.8,0.7,1.7,1.2,2.6,1.5c0.9,0.3,1.8,0.5,2.8,0.5H74v5.5h-3.4    c-3.1,0-5.8-0.1-8.2-0.4s-4.4-0.7-6.1-1.4c-1.7-0.7-3.3-1.7-4.5-2.9s-2.4-2.8-3.5-4.7l-12.4-22.9H29v20.5c0,1.4,0.1,2.4,0.4,3.3    c0.3,0.8,0.7,1.5,1.2,1.9c0.5,0.4,1.1,0.7,1.7,0.8c0.6,0.1,1.3,0.2,2,0.2h4.5v5.5H2.9V433.4z M29,400.6h5.8c2.4,0,4.4-0.3,6-1    c1.6-0.6,2.9-1.6,3.9-2.9c1-1.3,1.7-2.9,2.1-4.8s0.6-4.1,0.6-6.7c0-2.6-0.2-4.9-0.7-6.7c-0.5-1.8-1.2-3.3-2.2-4.5s-2.3-2-4-2.5    c-1.6-0.5-3.6-0.8-5.9-0.8H29V400.6z"></path>			<path class="st5" d="M102.7,432.6h20.8c1,0,1.9-0.2,2.7-0.6c0.7-0.4,1.4-0.9,1.9-1.7c0.5-0.7,1-1.5,1.3-2.5c0.3-1,0.6-2,0.7-3.2    l0.8-4.9h7.2l-0.8,19.2h-61v-5.5h4.4c0.7,0,1.4-0.1,2.1-0.2c0.6-0.1,1.2-0.4,1.7-0.8c0.5-0.4,0.9-1,1.1-1.9    c0.3-0.8,0.4-1.9,0.4-3.3v-50.3c0-1.5-0.1-2.7-0.4-3.6c-0.3-0.9-0.6-1.6-1.1-2s-1-0.8-1.7-0.9c-0.6-0.2-1.4-0.2-2.1-0.2h-4.4    v-5.5h57.8l0.4,19.2h-7.3l-0.5-4.9c-0.3-2.5-0.9-4.5-1.9-5.8c-1-1.4-2.6-2-4.7-2h-17.5v26h24.7v6.3h-24.7V432.6z"></path>			<path class="st5" d="M164.2,414.5l-3,8.9c-0.3,0.8-0.6,1.8-0.8,3c-0.3,1.1-0.4,2.1-0.4,3c0,0.7,0.1,1.3,0.4,1.8    c0.3,0.5,0.6,0.9,1.1,1.2c0.4,0.3,0.9,0.6,1.5,0.7c0.6,0.2,1.1,0.3,1.8,0.3h4.4v5.5H142v-5.5h1.3c0.9,0,1.8-0.1,2.5-0.3    c0.8-0.2,1.5-0.6,2.1-1.1c0.7-0.6,1.3-1.3,1.9-2.3s1.2-2.3,1.8-3.8l22.6-61.2h14.3l21.8,61.3c0.5,1.5,1,2.7,1.6,3.6    c0.6,1,1.2,1.7,1.8,2.3c0.7,0.6,1.4,1,2.1,1.2c0.7,0.2,1.5,0.4,2.3,0.4h1.9v5.5h-34.4v-5.5h4.1c0.5,0,1-0.1,1.6-0.2    c0.5-0.2,1-0.4,1.4-0.7c0.4-0.3,0.8-0.7,1-1.2c0.3-0.5,0.4-1.1,0.4-1.8c0-0.8-0.1-1.7-0.3-2.4c-0.2-0.8-0.4-1.5-0.6-2l-3.7-10.4    H164.2z M182,391.1c-0.4-1.2-0.8-2.4-1.1-3.7c-0.4-1.3-0.8-2.6-1.2-4s-0.8-2.7-1.1-4c-0.4-1.3-0.7-2.6-0.9-3.8    c-0.3,1-0.7,2.2-1.1,3.5c-0.4,1.3-0.8,2.5-1.3,3.9c-0.5,1.3-0.9,2.6-1.4,4c-0.5,1.3-0.9,2.6-1.3,3.8l-6.2,17.6h21L182,391.1z"></path>			<path class="st5" d="M222.8,438.9v-5.5h4.4c0.8,0,1.5-0.1,2.1-0.2c0.6-0.2,1.2-0.5,1.7-0.9s0.8-1.2,1.1-2    c0.3-0.9,0.4-2.1,0.4-3.6v-49.8c0-1.5-0.1-2.7-0.4-3.6c-0.3-0.9-0.6-1.6-1.1-2s-1-0.8-1.7-0.9c-0.6-0.2-1.4-0.2-2.1-0.2h-4.4    v-5.5h35.9v5.5h-4.4c-0.7,0-1.4,0.1-2.1,0.2c-0.7,0.2-1.2,0.4-1.7,0.9c-0.5,0.4-0.9,1.1-1.1,1.9c-0.3,0.8-0.4,1.9-0.4,3.3v56.1    h19.4c2.4,0,4.3-0.8,5.7-2.3c1.4-1.5,2.3-3.8,2.9-6.7l1.7-7.8h5.8l-0.8,23.2H222.8z"></path>			<path class="st5" d="M350.9,438.9v-5.5h1c1.1,0,2-0.1,2.9-0.2c0.8-0.1,1.5-0.4,2.1-0.8s0.9-1,1.2-1.8c0.3-0.8,0.4-1.8,0.4-3    v-52.7l-21,64h-7.1l-22-64v51.7c0,1.5,0.2,2.7,0.5,3.6c0.4,0.9,0.9,1.6,1.5,2c0.7,0.5,1.5,0.8,2.4,0.9s2,0.2,3.3,0.2h0.6v5.5    h-25.8v-5.5h4.4c0.7,0,1.4-0.1,2.1-0.2c0.6-0.1,1.2-0.4,1.7-0.8c0.5-0.4,0.9-1,1.1-1.9c0.3-0.8,0.4-1.9,0.4-3.3v-50.7    c0-1.4-0.1-2.5-0.4-3.3c-0.3-0.8-0.7-1.5-1.1-1.9s-1.1-0.7-1.7-0.9s-1.3-0.2-2.1-0.2h-4.4v-5.5h30l17.3,50.3l16.6-50.3h29.4v5.5    h-4.4c-0.7,0-1.4,0.1-2.1,0.2s-1.2,0.5-1.7,0.9c-0.5,0.5-0.8,1.2-1.1,2c-0.3,0.9-0.4,2.1-0.4,3.6v49.8c0,1.5,0.1,2.7,0.4,3.6    c0.3,0.9,0.6,1.6,1.1,2c0.5,0.5,1,0.8,1.7,0.9s1.3,0.2,2.1,0.2h4.4v5.5H350.9z"></path>			<path class="st5" d="M414.6,439.9c-4.7,0-8.6-0.4-11.7-1.3s-5.6-2-7.5-3.4c-1.9-1.4-3.2-2.9-4-4.7c-0.8-1.7-1.2-3.4-1.2-5.1    c0-1.8,0.3-3.3,1-4.5c0.7-1.2,1.5-2.2,2.6-3c1.1-0.8,2.4-1.3,3.8-1.7c1.4-0.3,2.9-0.5,4.4-0.5c0,3,0.4,5.6,1.1,7.9    c0.7,2.3,1.7,4.1,2.9,5.6c1.3,1.5,2.8,2.6,4.5,3.4c1.7,0.8,3.7,1.1,5.7,1.1c2,0,3.8-0.3,5.4-0.9s2.9-1.4,4.1-2.4s2-2.2,2.5-3.6    s0.9-2.9,0.9-4.4c0-1.8-0.4-3.3-1.1-4.7s-1.8-2.6-3.2-3.8c-1.4-1.2-3.3-2.3-5.4-3.4s-4.7-2.2-7.6-3.4c-3.6-1.5-6.7-3-9.2-4.6    c-2.5-1.6-4.5-3.3-6-5.1c-1.5-1.8-2.6-3.8-3.3-5.9c-0.7-2.1-1-4.5-1-7c0-3.2,0.6-6.1,1.9-8.6c1.3-2.6,3.1-4.8,5.3-6.6    c2.3-1.8,5-3.2,8.1-4.2c3.1-1,6.5-1.5,10.2-1.5c3.8,0,7.1,0.3,9.9,0.9c2.8,0.6,5.1,1.5,6.9,2.6c1.8,1.1,3.2,2.4,4,3.8    c0.9,1.5,1.3,3.1,1.3,4.8c0,1.2-0.3,2.4-0.8,3.4c-0.5,1.1-1.3,2-2.4,2.7c-1.1,0.8-2.4,1.4-4,1.8s-3.5,0.7-5.6,0.7    c0-1.5-0.2-3-0.6-4.7c-0.4-1.7-1-3.2-1.9-4.7c-0.9-1.4-2-2.6-3.4-3.6c-1.4-0.9-3.1-1.4-5.1-1.4c-1.4,0-2.7,0.2-4,0.6    c-1.3,0.4-2.3,1-3.3,1.8c-0.9,0.8-1.7,1.8-2.2,3c-0.5,1.2-0.8,2.6-0.8,4.1c0,1.5,0.2,2.8,0.7,4.1c0.5,1.3,1.3,2.5,2.6,3.8    c1.3,1.2,3,2.5,5.2,3.7c2.2,1.2,5.1,2.6,8.6,4c3.6,1.5,6.6,2.9,9.1,4.5c2.5,1.5,4.6,3.2,6.2,4.9s2.8,3.7,3.5,5.7s1.1,4.4,1.1,6.9    c0,3.4-0.7,6.4-2,9.2c-1.3,2.8-3.2,5.2-5.7,7.2c-2.5,2-5.4,3.6-8.9,4.7S418.9,439.9,414.6,439.9z"></path>		</g>		<polygon class="st5" points="171.8,248.6 212,95 414.6,0 614.3,76.7 639.9,159 606.7,83.9 416.4,20.1 228.5,105.9   "></polygon>		<polygon class="st5" points="652,215.2 666,254 652,286.6 659.1,253.7   "></polygon>	</g></g></svg>